<svg width="1200" height="630" viewBox="0 0 1200 630" fill="none" xmlns="http://www.w3.org/2000/svg">
  <rect width="1200" height="630" fill="#10130F"/>
  <path d="M0 72H1200M0 144H1200M0 216H1200M0 288H1200M0 360H1200M0 432H1200M0 504H1200M0 576H1200" stroke="#F5F1E6" stroke-opacity=".08"/>
  <path d="M96 0L0 630M216 0L120 630M336 0L240 630M456 0L360 630M576 0L480 630M696 0L600 630M816 0L720 630M936 0L840 630M1056 0L960 630M1176 0L1080 630" stroke="#D8FF4F" stroke-opacity=".12"/>
  <circle cx="902" cy="152" r="218" fill="#32DCC0" fill-opacity=".16"/>
  <circle cx="226" cy="520" r="260" fill="#FF704D" fill-opacity=".18"/>
  <g filter="url(#glow)">
    <circle cx="776" cy="324" r="42" fill="#D8FF4F"/>
    <circle cx="908" cy="232" r="32" fill="#32DCC0"/>
    <circle cx="1010" cy="410" r="54" fill="#FF704D"/>
  </g>
  <text x="88" y="156" fill="#D8FF4F" font-family="Consolas, monospace" font-size="30" font-weight="700">OPENTOP</text>
  <text x="84" y="282" fill="#F5F1E6" font-family="Georgia, serif" font-size="92" font-weight="700">AI Opportunity</text>
  <text x="84" y="384" fill="#F5F1E6" font-family="Georgia, serif" font-size="92" font-weight="700">Radar</text>
  <text x="90" y="466" fill="#D8D4C2" font-family="Georgia, serif" font-size="34">Rank AI app ideas by pain, urgency, distribution, buildability, and star potential.</text>
  <rect x="90" y="520" width="286" height="54" rx="8" fill="#D8FF4F"/>
  <text x="114" y="556" fill="#10130F" font-family="Consolas, monospace" font-size="24" font-weight="700">TypeScript + local-first</text>
  <defs>
    <filter id="glow" x="664" y="120" width="454" height="402" filterUnits="userSpaceOnUse" color-interpolation-filters="sRGB">
      <feGaussianBlur stdDeviation="18"/>
    </filter>
  </defs>
</svg>
